<?xml version="1.0" standalone="no"?>
<!DOCTYPE svg PUBLIC "-//W3C//DTD SVG 20010904//EN"
 "http://www.w3.org/TR/2001/REC-SVG-20010904/DTD/svg10.dtd">
<svg version="1.0" xmlns="http://www.w3.org/2000/svg"
 width="40.000000pt" height="40.000000pt" viewBox="0 0 40.000000 40.000000"
 preserveAspectRatio="xMidYMid meet">

<g transform="translate(0.000000,40.000000) scale(0.100000,-0.100000)"
fill="#000000" stroke="none">
<path d="M0 200 l0 -200 200 0 200 0 0 200 0 200 -200 0 -200 0 0 -200z m90
56 c0 -3 -4 -8 -10 -11 -5 -3 -10 -1 -10 4 0 6 5 11 10 11 6 0 10 -2 10 -4z
m50 -51 c0 -46 -3 -55 -17 -55 -15 0 -18 8 -15 55 3 39 8 55 18 55 10 0 14
-14 14 -55z m40 45 c0 -5 -2 -10 -4 -10 -3 0 -8 5 -11 10 -3 6 -1 10 4 10 6 0
11 -4 11 -10z m70 -10 c0 -11 4 -20 8 -20 5 0 17 9 27 20 10 11 23 20 29 20 6
0 0 -7 -12 -16 -29 -20 -28 -32 5 -66 l27 -28 -26 0 c-17 0 -29 8 -38 28 l-14
27 -4 -27 c-2 -18 -9 -28 -20 -28 -14 0 -16 9 -14 55 3 39 8 55 18 55 8 0 14
-9 14 -20z"/>
</g>
</svg>
